# xmcd
#
# Track frame offsets:
#	151
#	10572
#	28551
#	41699
#	54204
#	71687
#	85914
#	96685
#	108898
#	124532
#
# Disc length: 1998 seconds
#
# Revision: 0
# Processed by: cddbd v1.5.1PL0 Copyright (c) Steve Scherf et al.
# Submitted via: dBpowerAMP V4.0
#
DISCID=7607cc0a
DTITLE=Howlin Wolf - Goin' Down Slow
DYEAR=2000
DGENRE=Blues
TTITLE0=Built for Comfort
TTITLE1=Wang Dang Doodle
TTITLE2=Highway 49
TTITLE3=Ain't Superstitious
TTITLE4=Goin' Down Slow
TTITLE5=I walked from Dallas
TTITLE6=Hold on to Your Money
TTITLE7=Cause of it All
TTITLE8=Killing Floor
TTITLE9=The Red Rooster A/K/A The Little Red Rooster
EXTD=
EXTT0=
EXTT1=
EXTT2=
EXTT3=
EXTT4=
EXTT5=
EXTT6=
EXTT7=
EXTT8=
EXTT9=
PLAYORDER=
